<?xml version="1.0" encoding="utf-8"?><svg xmlns="http://www.w3.org/2000/svg" xmlns:xlink="http://www.w3.org/1999/xlink"><symbol viewBox="0 0 33.081 33.081" id="icons--alarm" xmlns="http://www.w3.org/2000/svg"><path d="M10.364 1.832l-.172-.207A5.543 5.543 0 006.262 0a5.556 5.556 0 00-4.077 9.332 14.045 14.045 0 018.179-7.5zm20.386.342A5.538 5.538 0 0026.817.547a5.53 5.53 0 00-3.928 1.627l-.188.199a14.071 14.071 0 018.193 7.506 5.553 5.553 0 00-.144-7.705zm-4.113 5.33A14.236 14.236 0 0016.541 3.32 14.226 14.226 0 006.446 7.504c-5.579 5.576-5.579 14.615 0 20.195.035.033.072.062.105.096l-3.593 3.596s-.115 1.311 1.681 1.68l3.758-3.756c2.441 1.703 5.287 2.568 8.144 2.568s5.704-.865 8.147-2.568l3.753 3.756c1.852.164 1.682-1.68 1.682-1.68l-3.591-3.596c.032-.033.068-.062.104-.096 5.579-5.58 5.579-14.619.001-20.195zm-2.463 17.609c-.05.043-.098.09-.146.137l-.606.6-.775.539a10.647 10.647 0 01-12.206 0l-.785-.547-.599-.592c-.047-.047-.096-.09-.145-.135A10.645 10.645 0 015.833 17.6c0-2.859 1.115-5.551 3.136-7.572a10.643 10.643 0 017.572-3.137 10.62 10.62 0 017.571 3.137A10.634 10.634 0 0127.25 17.6c0 2.841-1.098 5.515-3.076 7.513zM17.997 9.85a1.478 1.478 0 00-2.957 0v9.576h2.955v-.004l6.618.004c.814 0 1.476-.66 1.476-1.48 0-.818-.661-1.479-1.476-1.479h-6.618l.002-6.617z"/></symbol><symbol viewBox="0 0 502.485 502.485" id="icons--book" xmlns="http://www.w3.org/2000/svg"><path d="M493.376 4.267c-5.333-4.267-12.8-5.333-19.2-3.2L251.242 76.8 28.309 1.067c-6.4-2.133-13.867-1.067-19.2 3.2C3.776 8.533.576 14.933.576 21.333v380.8c0 9.6 5.333 17.067 13.867 20.267l229.333 77.867c7.467 4.267 14.933 1.067 14.933 1.067l229.333-77.867c8.533-3.2 13.867-11.733 13.867-20.267V21.334c0-6.401-3.2-12.801-8.533-17.067zM229.909 451.2l-187.733-64V50.133l187.733 64V451.2zm230.4-64l-187.733 64V114.133l187.733-64V387.2z"/><path d="M174.442 156.8l-55.467-30.933c-10.667-6.4-23.467-2.133-28.8 7.467-5.333 10.667-2.133 23.467 7.467 28.8l55.467 30.933c3.2 2.133 7.467 3.2 10.667 3.2 7.467 0 14.933-4.267 18.133-10.667 6.4-10.667 2.134-23.467-7.467-28.8zm0 90.667l-55.467-30.933c-10.667-6.4-23.467-2.133-28.8 7.467-6.4 10.667-2.133 23.467 7.467 28.8l55.467 30.933c3.2 2.133 7.467 3.2 10.667 3.2 7.467 0 14.933-3.2 18.133-10.667 6.4-10.667 2.134-23.467-7.467-28.8zm0 91.733l-55.467-30.933c-10.667-6.4-23.467-2.133-28.8 7.467-6.4 10.667-2.133 23.467 7.467 28.8l55.467 30.933c3.2 2.133 7.467 3.2 10.667 3.2 7.467 0 14.933-4.267 18.133-10.667 6.4-10.667 2.134-23.467-7.467-28.8zm237.867-205.867c-6.4-9.6-19.2-12.8-28.8-7.467L328.042 156.8c-9.6 6.4-12.8 19.2-7.467 28.8 4.267 6.4 10.667 10.667 18.133 10.667 3.2 0 6.4-1.067 10.667-3.2l55.467-30.933c9.6-6.401 12.801-19.2 7.467-28.801zm0 90.667c-6.4-9.6-19.2-12.8-28.8-7.467l-55.467 30.933c-9.6 6.4-12.8 19.2-7.467 28.8 4.267 6.4 10.667 10.667 18.133 10.667 3.2 0 6.4-1.067 10.667-3.2l55.467-30.933c9.6-6.4 12.801-19.2 7.467-28.8zm0 91.733c-6.4-9.6-19.2-12.8-28.8-7.467L328.042 339.2c-9.6 6.4-12.8 19.2-7.467 28.8 4.267 6.4 10.667 10.667 18.133 10.667 3.2 0 6.4-1.067 10.667-3.2l55.467-30.933c9.6-6.401 12.801-19.2 7.467-28.801z"/></symbol><symbol viewBox="0 -31 512 512" id="icons--cart" xmlns="http://www.w3.org/2000/svg"><path d="M164.96 300.004h.024c.02 0 .04-.004.059-.004H437a15.003 15.003 0 0014.422-10.879l60-210a15.003 15.003 0 00-2.445-13.152A15.006 15.006 0 00497 60H130.367l-10.722-48.254A15.003 15.003 0 00105 0H15C6.715 0 0 6.715 0 15s6.715 15 15 15h77.969c1.898 8.55 51.312 230.918 54.156 243.71C131.184 280.64 120 296.536 120 315c0 24.812 20.188 45 45 45h272c8.285 0 15-6.715 15-15s-6.715-15-15-15H165c-8.27 0-15-6.73-15-15 0-8.258 6.707-14.977 14.96-14.996zM477.114 90l-51.43 180H177.032l-40-180zM150 405c0 24.813 20.188 45 45 45s45-20.188 45-45-20.188-45-45-45-45 20.188-45 45zm45-15c8.27 0 15 6.73 15 15s-6.73 15-15 15-15-6.73-15-15 6.73-15 15-15zm167 15c0 24.813 20.188 45 45 45s45-20.188 45-45-20.188-45-45-45-45 20.188-45 45zm45-15c8.27 0 15 6.73 15 15s-6.73 15-15 15-15-6.73-15-15 6.73-15 15-15zm0 0"/></symbol><symbol viewBox="0 0 612 612" id="icons--digital" xmlns="http://www.w3.org/2000/svg"><path d="M243.958 340.177l-91.379 91.379L153 382.5c0-10.557-8.568-19.125-19.125-19.125s-19.125 8.568-19.125 19.125v95.625c0 5.661 2.333 10.231 6.043 13.388 3.461 3.538 8.281 5.737 13.617 5.737h95.09c10.557 0 19.125-8.568 19.125-19.125S240.057 459 229.5 459h-50.28l91.781-91.781-27.043-27.042zM229.5 153c10.557 0 19.125-8.568 19.125-19.125s-8.568-19.125-19.125-19.125h-95.089c-5.336 0-10.156 2.219-13.617 5.737-3.71 3.156-6.043 7.727-6.043 13.388V229.5c0 10.557 8.568 19.125 19.125 19.125S153 240.057 153 229.5l-.421-49.075 91.379 91.379 27.043-27.043L179.239 153H229.5zm248.625 210.375c-10.557 0-19.125 8.568-19.125 19.125l.421 49.075-91.38-91.38-27.042 27.043L432.779 459H382.5c-10.557 0-19.125 8.568-19.125 19.125s8.568 19.125 19.125 19.125h95.09c5.354 0 10.155-2.219 13.616-5.757 3.711-3.137 6.044-7.707 6.044-13.368V382.5c0-10.557-8.568-19.125-19.125-19.125zm-.535-248.625H382.5c-10.557 0-19.125 8.568-19.125 19.125S371.943 153 382.5 153h50.261l-91.781 91.781 27.043 27.043 91.379-91.379L459 229.5c0 10.557 8.568 19.125 19.125 19.125s19.125-8.568 19.125-19.125v-95.625c0-5.661-2.353-10.232-6.044-13.388-3.461-3.518-8.28-5.737-13.616-5.737zM535.5 0h-459C34.253 0 0 34.253 0 76.5v459C0 577.747 34.253 612 76.5 612h459c42.247 0 76.5-34.253 76.5-76.5v-459C612 34.253 577.747 0 535.5 0zm38.25 535.5c0 21.133-17.117 38.25-38.25 38.25h-459c-21.133 0-38.25-17.117-38.25-38.25v-459c0-21.114 17.117-38.25 38.25-38.25h459c21.133 0 38.25 17.136 38.25 38.25v459z"/></symbol><symbol viewBox="0 0 512 512" id="icons--house" xmlns="http://www.w3.org/2000/svg"><path d="M431.668 15c0-8.285-6.719-15-15-15h-80.336c-4.3 0-8.168 1.82-10.902 4.723L431.668 110.96zm68.758 207.145L294.03 15.754C283.875 5.594 270.367 0 256 0s-27.875 5.594-38.031 15.754L11.574 222.144C4.22 229.505 0 239.688 0 250.106c0 19.473 15.14 35.465 34.266 36.852v-14.89c0-12.02 4.683-23.325 13.183-31.82L224.18 63.515c8.5-8.5 19.801-13.184 31.821-13.184s23.32 4.684 31.82 13.184l176.73 176.73c8.5 8.5 13.184 19.8 13.184 31.82v14.891C496.86 285.57 512 269.578 512 250.105v-.015c0-10.402-4.219-20.586-11.574-27.945zM303.133 319.2h50.332V512h-50.332zm-144.602 0h50.336v50.331h-50.336zm0 0"/><path d="M266.605 84.727c-5.855-5.86-15.355-5.86-21.21 0L68.66 261.46a15.003 15.003 0 00-4.394 10.605V497c0 8.285 6.714 15 15 15h193.867V304.2c0-8.286 6.715-15 15-15h80.332c8.285 0 15 6.714 15 15V512h49.27c8.28 0 15-6.715 15-15V272.066c0-3.976-1.583-7.793-4.395-10.605zM238.867 384.53c0 8.285-6.715 15-15 15h-80.332c-8.285 0-15-6.715-15-15V304.2c0-8.285 6.715-15 15-15h80.332c8.285 0 15 6.715 15 15zm0 0"/></symbol><symbol viewBox="0 0 360 360" id="icons--screen" xmlns="http://www.w3.org/2000/svg"><path d="M230.77 291.289a2.504 2.504 0 00-1.734-.699h-98.071c-.646 0-1.269.251-1.734.699l-32.938 31.735a2.504 2.504 0 00-.766 1.801v6.929a2.5 2.5 0 002.5 2.5h163.947a2.5 2.5 0 002.5-2.5v-6.929a2.5 2.5 0 00-.766-1.801l-32.938-31.735zM352.86 25.746H7.142A7.143 7.143 0 000 32.886v244.958a7.144 7.144 0 007.142 7.145H352.86a7.142 7.142 0 007.14-7.145V32.886a7.141 7.141 0 00-7.14-7.14zM180 271.775a7.855 7.855 0 01-7.852-7.856 7.854 7.854 0 1115.707 0 7.855 7.855 0 01-7.855 7.856zm151.266-31.436H28.737V59.68h302.528v180.659z"/><path d="M160.044 198.379a2.044 2.044 0 002.892 0l87.602-87.601a2.043 2.043 0 000-2.892l-18.184-18.184c-.769-.769-2.126-.768-2.893 0l-67.972 67.973-30.952-30.953a2.045 2.045 0 00-2.893 0l-18.184 18.182a2.043 2.043 0 000 2.892l50.584 50.583z"/></symbol><symbol viewBox="0 0 512.005 512.005" id="icons--search" xmlns="http://www.w3.org/2000/svg"><path d="M505.749 475.587l-145.6-145.6c28.203-34.837 45.184-79.104 45.184-127.317C405.333 90.926 314.41.003 202.666.003S0 90.925 0 202.669s90.923 202.667 202.667 202.667c48.213 0 92.48-16.981 127.317-45.184l145.6 145.6c4.16 4.16 9.621 6.251 15.083 6.251s10.923-2.091 15.083-6.251c8.341-8.341 8.341-21.824-.001-30.165zM202.667 362.669c-88.235 0-160-71.765-160-160s71.765-160 160-160 160 71.765 160 160-71.766 160-160 160z"/></symbol><symbol viewBox="0 0 481.8 481.8" id="icons--team" xmlns="http://www.w3.org/2000/svg"><path d="M481.143 368.863l-11.952-60.019c-4.74-23.763-23.338-42.327-47.099-47.027l-16.173-3.19c-9.29-1.835-16.582-9.062-18.517-18.337l-3.087-14.849c-.975-4.764.74-9.686 4.487-12.779 14.614-12.094 27.983-29.879 35.715-50.879 10.739-1.929 20.518-12.25 23.683-26.454 3.905-17.606-3.843-34.296-17.321-37.288-.142-.023-.284-.009-.456-.023-4.063-45.714-21.669-79.561-80.215-79.561-57.57 0-75.838 33.84-80.137 79.529-.189.047-.394.032-.535.056-13.463 2.992-21.211 19.683-17.306 37.288 3.133 14.204 12.93 24.525 23.668 26.454 7.746 21.008 21.115 38.793 35.697 50.879a13.12 13.12 0 014.473 12.763l-3.07 14.85a23.57 23.57 0 01-18.519 18.353l-16.141 3.19c-21.116 4.171-38.076 19.296-44.956 39.271 20.831 11.826 36.043 32.124 40.91 56.555l10.408 52.178h162.838a34.258 34.258 0 0026.486-12.535 34.291 34.291 0 007.119-28.425z"/><path d="M250.578 362.368c-4.741-23.77-23.338-42.336-47.115-47.036l-16.157-3.189a23.584 23.584 0 01-18.518-18.337l-3.086-14.857a13.147 13.147 0 014.487-12.778c14.614-12.086 27.982-29.881 35.699-50.879 10.755-1.929 20.533-12.252 23.698-26.454 3.905-17.605-3.843-34.298-17.321-37.297-.143-.024-.284-.008-.473-.024-4.047-45.712-21.652-79.553-80.215-79.553-57.556 0-75.821 33.833-80.12 79.53-.205.039-.394.023-.536.047-13.479 2.999-21.227 19.691-17.32 37.297 3.133 14.202 12.928 24.525 23.668 26.454 7.746 21.006 21.115 38.793 35.713 50.887a13.119 13.119 0 014.473 12.763l-3.072 14.85a23.567 23.567 0 01-18.518 18.352l-16.141 3.189c-23.777 4.7-42.374 23.267-47.115 47.036L.658 422.389a34.289 34.289 0 007.117 28.423 34.263 34.263 0 0026.486 12.534h194.664c10.25 0 19.982-4.6 26.486-12.534a34.288 34.288 0 007.117-28.423l-11.95-60.021z"/></symbol><symbol viewBox="0 0 512 512" id="icons--web" xmlns="http://www.w3.org/2000/svg"><path d="M492 76H20C8.954 76 0 84.954 0 96v320c0 11.046 8.954 20 20 20h472c11.046 0 20-8.954 20-20V96c0-11.046-8.954-20-20-20zm-20 320H40V116h432v280z"/><path d="M432 204c-6.629-8.838-19.166-10.627-28-4l-94.664 71-94.668-71a20.001 20.001 0 00-24 0L84 280c-8.836 6.627-10.627 19.163-4 28 6.629 8.839 19.166 10.625 28 4l94.668-71 94.668 71a20.001 20.001 0 0024 0L428 232c8.837-6.628 10.627-19.164 4-28z"/></symbol></svg>