<?xml version="1.0" encoding="utf-8"?><svg xmlns="http://www.w3.org/2000/svg" xmlns:xlink="http://www.w3.org/1999/xlink"><symbol viewBox="0 -31 512 512" id="icons--cart" xmlns="http://www.w3.org/2000/svg"><path d="M164.96 300.004h.024c.02 0 .04-.004.059-.004H437a15.003 15.003 0 0014.422-10.879l60-210a15.003 15.003 0 00-2.445-13.152A15.006 15.006 0 00497 60H130.367l-10.722-48.254A15.003 15.003 0 00105 0H15C6.715 0 0 6.715 0 15s6.715 15 15 15h77.969c1.898 8.55 51.312 230.918 54.156 243.71C131.184 280.64 120 296.536 120 315c0 24.812 20.188 45 45 45h272c8.285 0 15-6.715 15-15s-6.715-15-15-15H165c-8.27 0-15-6.73-15-15 0-8.258 6.707-14.977 14.96-14.996zM477.114 90l-51.43 180H177.032l-40-180zM150 405c0 24.813 20.188 45 45 45s45-20.188 45-45-20.188-45-45-45-45 20.188-45 45zm45-15c8.27 0 15 6.73 15 15s-6.73 15-15 15-15-6.73-15-15 6.73-15 15-15zm167 15c0 24.813 20.188 45 45 45s45-20.188 45-45-20.188-45-45-45-45 20.188-45 45zm45-15c8.27 0 15 6.73 15 15s-6.73 15-15 15-15-6.73-15-15 6.73-15 15-15zm0 0"/></symbol><symbol viewBox="0 0 512.005 512.005" id="icons--search" xmlns="http://www.w3.org/2000/svg"><path d="M505.749 475.587l-145.6-145.6c28.203-34.837 45.184-79.104 45.184-127.317C405.333 90.926 314.41.003 202.666.003S0 90.925 0 202.669s90.923 202.667 202.667 202.667c48.213 0 92.48-16.981 127.317-45.184l145.6 145.6c4.16 4.16 9.621 6.251 15.083 6.251s10.923-2.091 15.083-6.251c8.341-8.341 8.341-21.824-.001-30.165zM202.667 362.669c-88.235 0-160-71.765-160-160s71.765-160 160-160 160 71.765 160 160-71.766 160-160 160z"/></symbol><symbol viewBox="0 0 481.8 481.8" id="icons--team" xmlns="http://www.w3.org/2000/svg"><path d="M481.143 368.863l-11.952-60.019c-4.74-23.763-23.338-42.327-47.099-47.027l-16.173-3.19c-9.29-1.835-16.582-9.062-18.517-18.337l-3.087-14.849c-.975-4.764.74-9.686 4.487-12.779 14.614-12.094 27.983-29.879 35.715-50.879 10.739-1.929 20.518-12.25 23.683-26.454 3.905-17.606-3.843-34.296-17.321-37.288-.142-.023-.284-.009-.456-.023-4.063-45.714-21.669-79.561-80.215-79.561-57.57 0-75.838 33.84-80.137 79.529-.189.047-.394.032-.535.056-13.463 2.992-21.211 19.683-17.306 37.288 3.133 14.204 12.93 24.525 23.668 26.454 7.746 21.008 21.115 38.793 35.697 50.879a13.12 13.12 0 014.473 12.763l-3.07 14.85a23.57 23.57 0 01-18.519 18.353l-16.141 3.19c-21.116 4.171-38.076 19.296-44.956 39.271 20.831 11.826 36.043 32.124 40.91 56.555l10.408 52.178h162.838a34.258 34.258 0 0026.486-12.535 34.291 34.291 0 007.119-28.425z"/><path d="M250.578 362.368c-4.741-23.77-23.338-42.336-47.115-47.036l-16.157-3.189a23.584 23.584 0 01-18.518-18.337l-3.086-14.857a13.147 13.147 0 014.487-12.778c14.614-12.086 27.982-29.881 35.699-50.879 10.755-1.929 20.533-12.252 23.698-26.454 3.905-17.605-3.843-34.298-17.321-37.297-.143-.024-.284-.008-.473-.024-4.047-45.712-21.652-79.553-80.215-79.553-57.556 0-75.821 33.833-80.12 79.53-.205.039-.394.023-.536.047-13.479 2.999-21.227 19.691-17.32 37.297 3.133 14.202 12.928 24.525 23.668 26.454 7.746 21.006 21.115 38.793 35.713 50.887a13.119 13.119 0 014.473 12.763l-3.072 14.85a23.567 23.567 0 01-18.518 18.352l-16.141 3.189c-23.777 4.7-42.374 23.267-47.115 47.036L.658 422.389a34.289 34.289 0 007.117 28.423 34.263 34.263 0 0026.486 12.534h194.664c10.25 0 19.982-4.6 26.486-12.534a34.288 34.288 0 007.117-28.423l-11.95-60.021z"/></symbol></svg>